<svg xmlns="http://www.w3.org/2000/svg" viewBox="0 0 32 32" role="img" aria-label="scoutr">
  <title>scoutr</title>
  <rect width="32" height="32" rx="5" fill="#C8F50C"/>
  <path d="M278 -14Q225 -14 182.0 -4.5Q139 5 107.0 23.0Q75 41 54.5 66.5Q34 92 26 123L146 176Q153 159 170.5 141.5Q188 124 217.5 113.0Q247 102 289 102Q329 102 351.5 113.5Q374 125 374 147Q374 163 361.5 172.5Q349 182 324.0 189.5Q299 197 262 204Q224 212 185.0 222.5Q146 233 112.0 251.5Q78 270 57.5 300.5Q37 331 37 378Q37 427 63.0 463.5Q89 500 140.5 521.0Q192 542 266 542Q332 542 382.0 525.0Q432 508 465.5 476.5Q499 445 512 401L383 355Q378 377 362.5 393.0Q347 409 323.5 417.5Q300 426 268 426Q229 426 207.5 414.0Q186 402 186 382Q186 366 200.5 355.5Q215 345 242.0 338.0Q269 331 306 323Q345 315 383.5 304.5Q422 294 453.5 276.5Q485 259 503.5 230.5Q522 202 522 157Q522 104 494.0 65.5Q466 27 411.5 6.5Q357 -14 278 -14Z" transform="translate(6.538 25.117) scale(0.034532 -0.034532)" fill="#1A1817"/>
</svg>
