<svg xmlns="http://www.w3.org/2000/svg" viewBox="1.20 38.00 593.92 141.76" role="img" aria-label="scoutr">
  <title>scoutr</title>
  <rect x="23.200" y="68.000" width="549.920" height="89.760" fill="#C8F50C"/>
  <path d="M278 -14Q225 -14 182.0 -4.5Q139 5 107.0 23.0Q75 41 54.5 66.5Q34 92 26 123L146 176Q153 159 170.5 141.5Q188 124 217.5 113.0Q247 102 289 102Q329 102 351.5 113.5Q374 125 374 147Q374 163 361.5 172.5Q349 182 324.0 189.5Q299 197 262 204Q224 212 185.0 222.5Q146 233 112.0 251.5Q78 270 57.5 300.5Q37 331 37 378Q37 427 63.0 463.5Q89 500 140.5 521.0Q192 542 266 542Q332 542 382.0 525.0Q432 508 465.5 476.5Q499 445 512 401L383 355Q378 377 362.5 393.0Q347 409 323.5 417.5Q300 426 268 426Q229 426 207.5 414.0Q186 402 186 382Q186 366 200.5 355.5Q215 345 242.0 338.0Q269 331 306 323Q345 315 383.5 304.5Q422 294 453.5 276.5Q485 259 503.5 230.5Q522 202 522 157Q522 104 494.0 65.5Q466 27 411.5 6.5Q357 -14 278 -14Z" transform="translate(39.840 155.200) scale(0.16000 -0.16000)" fill="#1A1817"/>
  <path d="M311 -14Q243 -14 191.0 5.0Q139 24 104.0 59.5Q69 95 50.5 145.0Q32 195 32 257Q32 321 50.5 373.0Q69 425 104.0 463.0Q139 501 190.0 521.5Q241 542 307 542Q373 542 421.0 521.0Q469 500 499.5 462.0Q530 424 541 374L392 324Q389 357 376.0 378.0Q363 399 342.5 408.5Q322 418 298 418Q273 418 254.0 408.0Q235 398 222.0 378.0Q209 358 202.0 329.5Q195 301 195 264Q195 211 208.5 175.5Q222 140 248.5 122.0Q275 104 313 104Q352 104 374.0 120.0Q396 136 406.0 159.5Q416 183 418 206L558 175Q554 138 538.5 103.5Q523 69 493.0 42.5Q463 16 418.5 1.0Q374 -14 311 -14Z" transform="translate(127.680 155.200) scale(0.16000 -0.16000)" fill="#1A1817"/>
  <path d="M305 -14Q225 -14 163.5 17.0Q102 48 67.0 110.0Q32 172 32 265Q32 358 67.0 419.5Q102 481 164.0 511.5Q226 542 306 542Q386 542 448.0 511.0Q510 480 545.0 418.5Q580 357 580 264Q580 169 544.0 107.0Q508 45 445.5 15.5Q383 -14 305 -14ZM310 103Q346 103 370.0 119.5Q394 136 406.0 170.0Q418 204 418 254Q418 307 405.0 343.5Q392 380 366.5 399.5Q341 419 301 419Q267 419 242.5 402.5Q218 386 206.0 352.0Q194 318 194 267Q194 185 224.5 144.0Q255 103 310 103Z" transform="translate(219.040 155.200) scale(0.16000 -0.16000)" fill="#1A1817"/>
  <path d="M243 -14Q149 -14 101.5 49.5Q54 113 54 243V528H216V264Q216 190 238.0 153.5Q260 117 305 117Q332 117 351.5 130.5Q371 144 384.5 168.5Q398 193 404.5 225.0Q411 257 411 295V528H572V0H444L441 163H421Q406 101 383.5 61.5Q361 22 327.0 4.0Q293 -14 243 -14Z" transform="translate(316.960 155.200) scale(0.16000 -0.16000)" fill="#1A1817"/>
  <path d="M268 -13Q175 -13 131.0 36.5Q87 86 87 195V402H12L15 527H69Q101 528 117.5 537.0Q134 546 138 571L151 645H242V528H369V397H242V202Q242 168 258.5 152.0Q275 136 309 136Q328 136 345.0 140.0Q362 144 373 151V2Q341 -8 314.5 -10.5Q288 -13 268 -13Z" transform="translate(418.400 155.200) scale(0.16000 -0.16000)" fill="#1A1817"/>
  <path d="M62 0V528H194L197 349H217Q224 419 243.5 460.5Q263 502 299.5 521.0Q336 540 390 540Q398 540 408.0 539.5Q418 539 431 537L425 365Q409 373 390.5 375.5Q372 378 358 378Q319 378 290.5 363.0Q262 348 245.5 317.0Q229 286 224 239V0Z" transform="translate(483.360 155.200) scale(0.16000 -0.16000)" fill="#1A1817"/>
</svg>
